<svg xmlns="http://www.w3.org/2000/svg" viewBox="-180 -185 780 815" role="img"><title>Armário divisório de duas faces</title><rect x="-180" y="-185" width="780" height="815" fill="white"/>
<polygon points="-135,-145 543.5,-145 543.5,-41 -25,-41 -25,120 -135,120" fill="#e8eff0" stroke="none" stroke-width="1"/>
<polygon points="0,0 513.5,0 513.5,311 433.5,311 433.5,361 513.5,361 513.5,485 433.5,485 433.5,500 346.5,500 346.5,470 127.5,470 127.5,535 0,535" fill="#faf8f2" stroke="none" stroke-width="1"/>
<line x1="-135" y1="-155" x2="543.5" y2="-155" fill="none" stroke="#657572" stroke-width="1"/>
<line x1="-135" y1="-149" x2="543.5" y2="-149" fill="none" stroke="#657572" stroke-width="1"/>
<line x1="-135" y1="-145" x2="543.5" y2="-145" fill="none" stroke="#657572" stroke-width="1"/>
<line x1="-5" y1="-155" x2="-5" y2="-145" fill="none" stroke="#657572" stroke-width="1"/>
<line x1="133" y1="-155" x2="133" y2="-145" fill="none" stroke="#657572" stroke-width="1"/>
<line x1="250" y1="-155" x2="250" y2="-145" fill="none" stroke="#657572" stroke-width="1"/>
<line x1="385" y1="-155" x2="385" y2="-145" fill="none" stroke="#657572" stroke-width="1"/>
<line x1="515" y1="-155" x2="515" y2="-145" fill="none" stroke="#657572" stroke-width="1"/>
<rect x="-150" y="-160" width="15" height="280" fill="#33403e" stroke="none" stroke-width="1"/>
<rect x="543.5" y="-160" width="15" height="160" fill="#33403e" stroke="none" stroke-width="1"/>
<rect x="133" y="-160" width="15" height="40" fill="#33403e" stroke="none" stroke-width="1"/>
<rect x="-25" y="-41" width="25" height="576" fill="#33403e" stroke="none" stroke-width="1"/>
<rect x="-70" y="120" width="70" height="30" fill="#33403e" stroke="none" stroke-width="1"/>
<line x1="-135" y1="120" x2="-70" y2="120" fill="none" stroke="#657572" stroke-width="1"/>
<line x1="-135" y1="127" x2="-70" y2="127" fill="none" stroke="#657572" stroke-width="1"/>
<rect x="105" y="-41" width="150" height="41" fill="#33403e" stroke="none" stroke-width="1"/>
<rect x="255" y="-31" width="29" height="16" fill="#33403e" stroke="none" stroke-width="1"/>
<rect x="465" y="-41" width="78.5" height="41" fill="#33403e" stroke="none" stroke-width="1"/>
<line x1="5" y1="-29" x2="105" y2="-29" fill="none" stroke="#657572" stroke-width="1"/>
<line x1="5" y1="-23" x2="105" y2="-23" fill="none" stroke="#657572" stroke-width="1"/>
<text x="55" y="-8" text-anchor="middle" fill="#657572" font-family="DejaVu Sans, sans-serif" font-size="10">J13</text>
<line x1="380" y1="-29" x2="465" y2="-29" fill="none" stroke="#657572" stroke-width="1"/>
<line x1="380" y1="-23" x2="465" y2="-23" fill="none" stroke="#657572" stroke-width="1"/>
<text x="422" y="-8" text-anchor="middle" fill="#657572" font-family="DejaVu Sans, sans-serif" font-size="10">J11</text>
<line x1="284" y1="-24" x2="380" y2="-24" fill="none" stroke="#657572" stroke-width="1" stroke-dasharray="5 4"/>
<line x1="284" y1="-24" x2="284" y2="72" fill="none" stroke="#657572" stroke-width="1"/>
<line x1="380.0" y1="-24.0" x2="379.5377337605309" y2="-14.590354528362182" fill="none" stroke="#657572" stroke-width="0.6" stroke-dasharray="5 4"/>
<line x1="379.5377337605309" y1="-14.590354528362182" x2="378.1553869187101" y2="-5.271329086451686" fill="none" stroke="#657572" stroke-width="0.6" stroke-dasharray="5 4"/>
<line x1="378.1553869187101" y1="-5.271329086451686" x2="375.86627223029205" y2="3.8673290164283856" fill="none" stroke="#657572" stroke-width="0.6" stroke-dasharray="5 4"/>
<line x1="375.86627223029205" y1="3.8673290164283856" x2="372.6924351210835" y2="12.737609507048617" fill="none" stroke="#657572" stroke-width="0.6" stroke-dasharray="5 4"/>
<line x1="372.6924351210835" y1="12.737609507048617" x2="368.6644413774421" y2="21.254086735295772" fill="none" stroke="#657572" stroke-width="0.6" stroke-dasharray="5 4"/>
<line x1="368.6644413774421" y1="21.254086735295772" x2="363.8210827810443" y2="29.33474236988181" fill="none" stroke="#657572" stroke-width="0.6" stroke-dasharray="5 4"/>
<line x1="363.8210827810443" y1="29.33474236988181" x2="358.20900352282274" y2="36.90175527970997" fill="none" stroke="#657572" stroke-width="0.6" stroke-dasharray="5 4"/>
<line x1="358.20900352282274" y1="36.90175527970997" x2="351.88225099390854" y2="43.882250993908556" fill="none" stroke="#657572" stroke-width="0.6" stroke-dasharray="5 4"/>
<line x1="351.88225099390854" y1="43.882250993908556" x2="344.90175527970996" y2="50.209003522822755" fill="none" stroke="#657572" stroke-width="0.6" stroke-dasharray="5 4"/>
<line x1="344.90175527970996" y1="50.209003522822755" x2="337.33474236988184" y2="55.82108278104434" fill="none" stroke="#657572" stroke-width="0.6" stroke-dasharray="5 4"/>
<line x1="337.33474236988184" y1="55.82108278104434" x2="329.2540867352958" y2="60.664441377442074" fill="none" stroke="#657572" stroke-width="0.6" stroke-dasharray="5 4"/>
<line x1="329.2540867352958" y1="60.664441377442074" x2="320.7376095070486" y2="64.69243512108352" fill="none" stroke="#657572" stroke-width="0.6" stroke-dasharray="5 4"/>
<line x1="320.7376095070486" y1="64.69243512108352" x2="311.86732901642836" y2="67.86627223029205" fill="none" stroke="#657572" stroke-width="0.6" stroke-dasharray="5 4"/>
<line x1="311.86732901642836" y1="67.86627223029205" x2="302.72867091354834" y2="70.15538691871012" fill="none" stroke="#657572" stroke-width="0.6" stroke-dasharray="5 4"/>
<line x1="302.72867091354834" y1="70.15538691871012" x2="293.4096454716378" y2="71.5377337605309" fill="none" stroke="#657572" stroke-width="0.6" stroke-dasharray="5 4"/>
<line x1="293.4096454716378" y1="71.5377337605309" x2="284.0" y2="72.0" fill="none" stroke="#657572" stroke-width="0.6" stroke-dasharray="5 4"/>
<text x="332" y="-8" text-anchor="middle" fill="#657572" font-family="DejaVu Sans, sans-serif" font-size="10">J12</text>
<rect x="513.5" y="0" width="15" height="311" fill="#33403e" stroke="none" stroke-width="1"/>
<rect x="433.5" y="311" width="95" height="50" fill="#33403e" stroke="none" stroke-width="1"/>
<rect x="513.5" y="361" width="15" height="25" fill="#33403e" stroke="none" stroke-width="1"/>
<rect x="513.5" y="476" width="15" height="24" fill="#33403e" stroke="none" stroke-width="1"/>
<line x1="513.5" y1="476" x2="423.5" y2="476" fill="none" stroke="#657572" stroke-width="1"/>
<line x1="513.5" y1="386" x2="513.5" y2="476" fill="none" stroke="#657572" stroke-width="0.7" stroke-dasharray="5 4"/>
<line x1="423.5" y1="476.0" x2="423.93337459950226" y2="467.1784573703396" fill="none" stroke="#657572" stroke-width="0.6" stroke-dasharray="5 4"/>
<line x1="423.93337459950226" y1="467.1784573703396" x2="425.22932476370926" y2="458.44187101854845" fill="none" stroke="#657572" stroke-width="0.6" stroke-dasharray="5 4"/>
<line x1="425.22932476370926" y1="458.44187101854845" x2="427.3753697841012" y2="449.8743790470984" fill="none" stroke="#657572" stroke-width="0.6" stroke-dasharray="5 4"/>
<line x1="427.3753697841012" y1="449.8743790470984" x2="430.3508420739842" y2="441.55849108714193" fill="none" stroke="#657572" stroke-width="0.6" stroke-dasharray="5 4"/>
<line x1="430.3508420739842" y1="441.55849108714193" x2="434.12708620864805" y2="433.5742936856602" fill="none" stroke="#657572" stroke-width="0.6" stroke-dasharray="5 4"/>
<line x1="434.12708620864805" y1="433.5742936856602" x2="438.6677348927709" y2="425.9986790282358" fill="none" stroke="#657572" stroke-width="0.6" stroke-dasharray="5 4"/>
<line x1="438.6677348927709" y1="425.9986790282358" x2="443.9290591973537" y2="418.9046044252719" fill="none" stroke="#657572" stroke-width="0.6" stroke-dasharray="5 4"/>
<line x1="443.9290591973537" y1="418.9046044252719" x2="449.8603896932107" y2="412.3603896932107" fill="none" stroke="#657572" stroke-width="0.6" stroke-dasharray="5 4"/>
<line x1="449.8603896932107" y1="412.3603896932107" x2="456.4046044252719" y2="406.4290591973537" fill="none" stroke="#657572" stroke-width="0.6" stroke-dasharray="5 4"/>
<line x1="456.4046044252719" y1="406.4290591973537" x2="463.4986790282358" y2="401.1677348927709" fill="none" stroke="#657572" stroke-width="0.6" stroke-dasharray="5 4"/>
<line x1="463.4986790282358" y1="401.1677348927709" x2="471.0742936856602" y2="396.62708620864805" fill="none" stroke="#657572" stroke-width="0.6" stroke-dasharray="5 4"/>
<line x1="471.0742936856602" y1="396.62708620864805" x2="479.05849108714193" y2="392.8508420739842" fill="none" stroke="#657572" stroke-width="0.6" stroke-dasharray="5 4"/>
<line x1="479.05849108714193" y1="392.8508420739842" x2="487.3743790470984" y2="389.8753697841012" fill="none" stroke="#657572" stroke-width="0.6" stroke-dasharray="5 4"/>
<line x1="487.3743790470984" y1="389.8753697841012" x2="495.94187101854845" y2="387.72932476370926" fill="none" stroke="#657572" stroke-width="0.6" stroke-dasharray="5 4"/>
<line x1="495.94187101854845" y1="387.72932476370926" x2="504.6784573703395" y2="386.43337459950226" fill="none" stroke="#657572" stroke-width="0.6" stroke-dasharray="5 4"/>
<line x1="504.6784573703395" y1="386.43337459950226" x2="513.5" y2="386.0" fill="none" stroke="#657572" stroke-width="0.6" stroke-dasharray="5 4"/>
<text x="467" y="442" text-anchor="middle" fill="#657572" font-family="DejaVu Sans, sans-serif" font-size="11">P5</text>
<rect x="127.5" y="470" width="219" height="14" fill="#33403e" stroke="none" stroke-width="1"/>
<rect x="127.5" y="484" width="219" height="61" fill="#e5e6e2" stroke="none" stroke-width="1"/>
<text x="237" y="517" text-anchor="middle" fill="#657572" font-family="DejaVu Sans, sans-serif" font-size="12">I.S. existente</text>
<text x="237" y="534" text-anchor="middle" fill="#657572" font-family="DejaVu Sans, sans-serif" font-size="10">fora da intervenção</text>
<rect x="127.5" y="484" width="14" height="61" fill="#33403e" stroke="none" stroke-width="1"/>
<rect x="332.5" y="484" width="14" height="61" fill="#33403e" stroke="none" stroke-width="1"/>
<line x1="30" y1="535" x2="120" y2="535" fill="none" stroke="#657572" stroke-width="1" stroke-dasharray="5 4"/>
<line x1="30" y1="535" x2="30" y2="445" fill="none" stroke="#657572" stroke-width="1"/>
<text x="76" y="517" text-anchor="middle" fill="#657572" font-family="DejaVu Sans, sans-serif" font-size="11">P1</text>
<line x1="346.5" y1="500" x2="433.5" y2="500" fill="none" stroke="#657572" stroke-width="1" stroke-dasharray="5 4"/>
<line x1="346.5" y1="500" x2="346.5" y2="413" fill="none" stroke="#657572" stroke-width="1"/>
<text x="390" y="492" text-anchor="middle" fill="#657572" font-family="DejaVu Sans, sans-serif" font-size="11">P4</text>
<polygon points="-158,-166 568,-166 568,495 443,513 350,513 350,489 123,489 123,560 -33,560 -33,158 -158,158" fill="none" stroke="#c45b51" stroke-width="1.5" stroke-dasharray="5 4"/>
<line x1="0" y1="388" x2="513.5" y2="388" fill="none" stroke="#657572" stroke-width="0.65"/>
<line x1="0" y1="384" x2="0" y2="392" fill="none" stroke="#657572" stroke-width="0.65"/>
<line x1="513.5" y1="384" x2="513.5" y2="392" fill="none" stroke="#657572" stroke-width="0.65"/>
<text x="256.75" y="381" text-anchor="middle" fill="#657572" font-family="DejaVu Sans, sans-serif" font-size="10">5,135 m · largura de referência</text>
<text x="-80" y="-63" text-anchor="middle" fill="#657572" font-family="DejaVu Sans, sans-serif" font-size="11">VARANDA</text>
<text x="-80" y="-47" text-anchor="middle" fill="#657572" font-family="DejaVu Sans, sans-serif" font-size="10">8,90 m²¹</text>
<line x1="-110" y1="583" x2="-10" y2="583" fill="none" stroke="#233332" stroke-width="3"/>
<line x1="-110" y1="578" x2="-110" y2="588" fill="none" stroke="#233332" stroke-width="1"/>
<line x1="-10" y1="578" x2="-10" y2="588" fill="none" stroke="#233332" stroke-width="1"/>
<text x="-60" y="602" text-anchor="middle" fill="#657572" font-family="DejaVu Sans, sans-serif" font-size="10">1 m · indicativo</text>
<text x="220" y="587" text-anchor="middle" fill="#657572" font-family="DejaVu Sans, sans-serif" font-size="11">Mesma orientação das imagens originais</text>
<text x="220" y="605" text-anchor="middle" fill="#657572" font-family="DejaVu Sans, sans-serif" font-size="10">Cotas propostas em cm · não usar para obra</text>
<rect x="453.5" y="0" width="60" height="60" fill="#dfcbae" stroke="#233332" stroke-width="1"/>
<text x="483.5" y="34.0" text-anchor="middle" fill="#233332" font-family="DejaVu Sans, sans-serif" font-size="12">LL</text>
<rect x="453.5" y="60" width="60" height="80" fill="#dfcbae" stroke="#233332" stroke-width="1"/>
<rect x="465.5" y="72.0" width="36.0" height="33.6" fill="none" stroke="#233332" stroke-width="1"/>
<line x1="480.5" y1="65.6" x2="480.5" y2="76.0" fill="none" stroke="#233332" stroke-width="1"/>
<text x="483.5" y="126.39999999999999" text-anchor="middle" fill="#233332" font-family="DejaVu Sans, sans-serif" font-size="12">LV</text>
<rect x="453.5" y="140" width="60" height="70" fill="#dfcbae" stroke="#233332" stroke-width="1"/>
<text x="483.5" y="179.0" text-anchor="middle" fill="#233332" font-family="DejaVu Sans, sans-serif" font-size="12">BP</text>
<rect x="453.5" y="210" width="60" height="60" fill="#dfcbae" stroke="#233332" stroke-width="1"/>
<circle cx="471.5" cy="223.8" r="5" fill="none" stroke="#233332" stroke-width="1"/>
<circle cx="494.3" cy="223.8" r="5" fill="none" stroke="#233332" stroke-width="1"/>
<circle cx="471.5" cy="240.0" r="5" fill="none" stroke="#233332" stroke-width="1"/>
<circle cx="494.3" cy="240.0" r="5" fill="none" stroke="#233332" stroke-width="1"/>
<text x="483.5" y="259.8" text-anchor="middle" fill="#233332" font-family="DejaVu Sans, sans-serif" font-size="12">PC</text>
<rect x="453.5" y="270" width="60" height="41" fill="#dfcbae" stroke="#233332" stroke-width="1"/>
<text x="483.5" y="294.5" text-anchor="middle" fill="#233332" font-family="DejaVu Sans, sans-serif" font-size="12">BP</text>
<rect x="127.5" y="410" width="60" height="60" fill="#dfcbae" stroke="#233332" stroke-width="1"/>
<text x="157.5" y="444.0" text-anchor="middle" fill="#233332" font-family="DejaVu Sans, sans-serif" font-size="12">FR</text>
<rect x="187.5" y="410" width="60" height="60" fill="#dfcbae" stroke="#233332" stroke-width="1"/>
<text x="217.5" y="444.0" text-anchor="middle" fill="#233332" font-family="DejaVu Sans, sans-serif" font-size="12">CG</text>
<rect x="247.5" y="410" width="60" height="60" fill="#dfcbae" stroke="#233332" stroke-width="1"/>
<text x="277.5" y="444.0" text-anchor="middle" fill="#233332" font-family="DejaVu Sans, sans-serif" font-size="12">FO</text>
<rect x="307.5" y="410" width="29" height="60" fill="#dfcbae" stroke="#233332" stroke-width="1"/>
<text x="322.0" y="444.0" text-anchor="middle" fill="#233332" font-family="DejaVu Sans, sans-serif" font-size="12">DP</text>
<rect x="0" y="0" width="60" height="140" fill="#a9c6bb" stroke="#233332" stroke-width="1"/>
<text x="30.0" y="74.0" text-anchor="middle" fill="#233332" font-family="DejaVu Sans, sans-serif" font-size="12">EG</text>
<line x1="13.8" y1="14" x2="13.8" y2="126" fill="none" stroke="#657572" stroke-width="0.7"/>
<rect x="0" y="145" width="70" height="70" fill="#a9c6bb" stroke="#233332" stroke-width="1"/>
<circle cx="35.0" cy="168.8" r="14.0" fill="none" stroke="#233332" stroke-width="1.2"/>
<text x="35.0" y="203.1" text-anchor="middle" fill="#233332" font-family="DejaVu Sans, sans-serif" font-size="12">LS</text>
<rect x="0" y="215" width="70" height="60" fill="#a9c6bb" stroke="#233332" stroke-width="1"/>
<rect x="14.0" y="224.0" width="42.0" height="25.2" fill="none" stroke="#233332" stroke-width="1"/>
<line x1="31.5" y1="219.2" x2="31.5" y2="227.0" fill="none" stroke="#233332" stroke-width="1"/>
<text x="35.0" y="264.8" text-anchor="middle" fill="#233332" font-family="DejaVu Sans, sans-serif" font-size="12">TR</text>
<rect x="0" y="275" width="70" height="21" fill="#a9c6bb" stroke="#233332" stroke-width="1"/>
<text x="35.0" y="289.5" text-anchor="middle" fill="#233332" font-family="DejaVu Sans, sans-serif" font-size="12">CE</text>
<rect x="0" y="296" width="70" height="70" fill="#a9c6bb" stroke="#233332" stroke-width="1"/>
<text x="35.0" y="335.0" text-anchor="middle" fill="#233332" font-family="DejaVu Sans, sans-serif" font-size="12">AT</text>
<rect x="190" y="105" width="30" height="190" fill="#a9c6bb" stroke="#233332" stroke-width="1"/>
<text x="205.0" y="204.0" text-anchor="middle" fill="#233332" font-family="DejaVu Sans, sans-serif" font-size="12">RL</text>
<rect x="220" y="105" width="60" height="190" fill="#dfcbae" stroke="#233332" stroke-width="1"/>
<text x="250.0" y="204.0" text-anchor="middle" fill="#233332" font-family="DejaVu Sans, sans-serif" font-size="12">BP</text>
<line x1="220" y1="105" x2="220" y2="295" fill="none" stroke="#233332" stroke-width="4"/>
<line x1="70" y1="230" x2="190" y2="230" fill="none" stroke="#657572" stroke-width="0.65"/>
<line x1="70" y1="226" x2="70" y2="234" fill="none" stroke="#657572" stroke-width="0.65"/>
<line x1="190" y1="226" x2="190" y2="234" fill="none" stroke="#657572" stroke-width="0.65"/>
<text x="130.0" y="223" text-anchor="middle" fill="#657572" font-family="DejaVu Sans, sans-serif" font-size="10">120</text>
<line x1="280" y1="230" x2="453.5" y2="230" fill="none" stroke="#657572" stroke-width="0.65"/>
<line x1="280" y1="226" x2="280" y2="234" fill="none" stroke="#657572" stroke-width="0.65"/>
<line x1="453.5" y1="226" x2="453.5" y2="234" fill="none" stroke="#657572" stroke-width="0.65"/>
<text x="366.75" y="223" text-anchor="middle" fill="#657572" font-family="DejaVu Sans, sans-serif" font-size="10">174</text>
<text x="125" y="67" text-anchor="middle" fill="#233332" font-family="DejaVu Sans, sans-serif" font-size="12">ROUPA</text>
<text x="367" y="125" text-anchor="middle" fill="#233332" font-family="DejaVu Sans, sans-serif" font-size="12">COZINHA</text>
<text x="317" y="-79" text-anchor="middle" fill="#657572" font-family="DejaVu Sans, sans-serif" font-size="12">Varanda livre · secagem ocasional</text></svg>