<svg xmlns="http://www.w3.org/2000/svg" width="1200" height="1070" viewBox="0 0 1200 1070"><rect width="1200" height="1070" fill="#faf7f0"/><style>text{font-family:Arial,sans-serif;fill:#374032}</style><text x="45" y="40" font-size="12" fill="#657758">CASA NOVA / ESCRITÓRIO · ARRUMAÇÃO FECHADA</text><text x="45" y="85" font-size="33" fill="#374032">Tudo guardado, superfícies livres.</text><text x="45" y="119" font-size="15" fill="#746f61">Alçados de estudo · medidas em metros · altura de teto assumida: 2,65</text><text x="150" y="160" font-size="18" fill="#374032">01 / Parede da bancada · quatro lugares</text><rect x="150" y="162.0" width="816.0" height="368.0" fill="#f0eadf" stroke="#d1c8b7"/><rect x="238.0" y="170.0" width="640.0" height="112.0" fill="#ded8c8" stroke="#827d6c"/><rect x="239.0" y="171.0" width="78.0" height="110.0" fill="none" stroke="#827d6c"/><text x="266.8" y="238.8" font-size="18" fill="#374032">↔</text><rect x="319.0" y="171.0" width="78.0" height="110.0" fill="none" stroke="#827d6c"/><text x="346.8" y="238.8" font-size="18" fill="#374032">↔</text><rect x="399.0" y="171.0" width="78.0" height="110.0" fill="none" stroke="#827d6c"/><text x="426.8" y="238.8" font-size="18" fill="#374032">↔</text><rect x="479.0" y="171.0" width="78.0" height="110.0" fill="none" stroke="#827d6c"/><text x="506.8" y="238.8" font-size="18" fill="#374032">↔</text><rect x="559.0" y="171.0" width="78.0" height="110.0" fill="none" stroke="#827d6c"/><text x="586.8" y="238.8" font-size="18" fill="#374032">↔</text><rect x="639.0" y="171.0" width="78.0" height="110.0" fill="none" stroke="#827d6c"/><text x="666.8" y="238.8" font-size="18" fill="#374032">↔</text><rect x="719.0" y="171.0" width="78.0" height="110.0" fill="none" stroke="#827d6c"/><text x="746.8" y="238.8" font-size="18" fill="#374032">↔</text><rect x="799.0" y="171.0" width="78.0" height="110.0" fill="none" stroke="#827d6c"/><text x="826.8" y="238.8" font-size="18" fill="#374032">↔</text><rect x="206.0" y="410.0" width="704.0" height="5.6" fill="#c39b65" stroke="#827d6c"/><rect x="278.0" y="400.4" width="32.0" height="9.6" fill="#263831" stroke="#827d6c"/><rect x="454.0" y="400.4" width="32.0" height="9.6" fill="#263831" stroke="#827d6c"/><rect x="630.0" y="400.4" width="32.0" height="9.6" fill="#263831" stroke="#827d6c"/><rect x="806.0000000000001" y="400.4" width="32.0" height="9.6" fill="#263831" stroke="#827d6c"/><rect x="206.0" y="416.0" width="3.2" height="114.0" fill="#53594e" stroke="#827d6c"/><rect x="382.0" y="416.0" width="3.2" height="114.0" fill="#53594e" stroke="#827d6c"/><rect x="558.0" y="416.0" width="3.2" height="114.0" fill="#53594e" stroke="#827d6c"/><rect x="734.0" y="416.0" width="3.2" height="114.0" fill="#53594e" stroke="#827d6c"/><rect x="906.8000000000001" y="416.0" width="3.2" height="114.0" fill="#53594e" stroke="#827d6c"/><text x="690" y="155.0" font-size="14" fill="#526c4a">4,00 m · profundidade 0,30</text><text x="983.0" y="175.0" font-size="13" fill="#374032">2,25</text><text x="983.0" y="287.0" font-size="13" fill="#374032">1,55</text><text x="983.0" y="415.0" font-size="13" fill="#374032">0,75</text><text x="150" y="556" font-size="14" fill="#746f61">8 frentes de 50 cm · portas de correr · 4 módulos de tomadas no tampo</text><text x="150" y="580" font-size="18" fill="#374032">02 / Parede entre as portas · MAGNUS</text><rect x="150" y="582.0" width="816.0" height="368.0" fill="#f0eadf" stroke="#d1c8b7"/><rect x="182.0" y="614.0" width="120.0" height="336.0" fill="#e1ded3" stroke="#827d6c"/><text x="222.0" y="774.0" font-size="13" fill="#374032">P9*</text><rect x="790.0" y="614.0" width="120.0" height="336.0" fill="#e1ded3" stroke="#827d6c"/><text x="830.0" y="774.0" font-size="13" fill="#374032">P10*</text><rect x="430.0" y="832.4" width="240.0" height="5.6" fill="#3d4541" stroke="#827d6c"/><rect x="657.2" y="822.8" width="12.8" height="9.6" fill="#263831" stroke="#827d6c"/><rect x="438.0" y="838.4" width="3.2" height="111.6" fill="#53594e" stroke="#827d6c"/><rect x="658.8" y="838.4" width="3.2" height="111.6" fill="#53594e" stroke="#827d6c"/><rect x="446.4" y="731.6" width="101.6" height="61.6" fill="#465753" stroke="#827d6c"/><rect x="495.12" y="793.2" width="4.16" height="39.2" fill="#353d36" stroke="#827d6c"/><rect x="552.0" y="731.6" width="101.6" height="61.6" fill="#465753" stroke="#827d6c"/><rect x="600.72" y="793.2" width="4.16" height="39.2" fill="#353d36" stroke="#827d6c"/><text x="690" y="575.0" font-size="14" fill="#526c4a">Sem armário superior</text><text x="983.0" y="837.4" font-size="13" fill="#374032">0,735</text><text x="150" y="976" font-size="14" fill="#746f61">Dois monitores · parede livre acima · módulo de tomadas preso por grampo ao tampo</text><text x="45" y="1020" font-size="13" fill="#746f61">Alturas e módulos propostos. Tampo contínuo com apoios entre lugares; dimensionar estrutura e fixações para as cargas reais.</text><text x="45" y="1045" font-size="13" fill="#746f61">As portas existentes são representadas por leitura gráfica. A largura útil entre P9 e P10 deve ser confirmada antes de encomendar.</text></svg>