<svg xmlns="http://www.w3.org/2000/svg" width="1200" height="1120" viewBox="0 0 1200 1120"><rect width="1200" height="1120" fill="#faf7f0"/><style>text{font-family:Arial,sans-serif}.serif{font-family:Georgia,serif}</style><defs><pattern id="parquet" width="40.5" height="40.5" patternUnits="userSpaceOnUse"><rect width="40.5" height="40.5" fill="#e4d0ae"/><path d="M0 0H40.5V40.5H0Z M0 10.125H20.25 M0 20.25H40.5 M0 30.375H20.25 M20.25 0V40.5 M30.375 0V20.25" fill="none" stroke="#cbb18b" stroke-width=".5"/></pattern></defs><text x="45" y="43" font-size="12" fill="#6c785c" text-anchor="start" letter-spacing="2">CASA NOVA / ESCRITÓRIO · V3</text><text x="45" y="90" font-size="33" fill="#343d32" text-anchor="start" class="serif">Luz de trabalho, luz de ambiente.</text><text x="45" y="122" font-size="15" fill="#747061" text-anchor="start" >Pontos propostos · cotas horizontais em metros · altura do teto por confirmar</text><rect x="185" y="210" width="446.85" height="688.5" fill="url(#parquet)" stroke="#9a947f" stroke-width="1" stroke-dasharray=""/><rect x="160.7" y="185.7" width="24.3" height="737.1" fill="#4c5747" stroke="#4c5747" stroke-width="1" stroke-dasharray=""/><rect x="185" y="185.7" width="471.15000000000003" height="24.3" fill="#4c5747" stroke="#4c5747" stroke-width="1" stroke-dasharray=""/><rect x="631.85" y="210" width="24.3" height="27.0" fill="#4c5747" stroke="#4c5747" stroke-width="1" stroke-dasharray=""/><rect x="631.85" y="338.25" width="24.3" height="411.75" fill="#4c5747" stroke="#4c5747" stroke-width="1" stroke-dasharray=""/><rect x="631.85" y="851.25" width="24.3" height="71.55" fill="#4c5747" stroke="#4c5747" stroke-width="1" stroke-dasharray=""/><rect x="185" y="898.5" width="88.425" height="24.3" fill="#4c5747" stroke="#4c5747" stroke-width="1" stroke-dasharray=""/><rect x="543.425" y="898.5" width="88.425" height="24.3" fill="#4c5747" stroke="#4c5747" stroke-width="1" stroke-dasharray=""/><line x1="273.425" y1="898.5" x2="543.425" y2="898.5" stroke="#6a929a" stroke-width="2" stroke-dasharray=""/><line x1="273.425" y1="907.95" x2="543.425" y2="907.95" stroke="#6a929a" stroke-width="2" stroke-dasharray=""/><line x1="273.425" y1="917.4" x2="543.425" y2="917.4" stroke="#6a929a" stroke-width="2" stroke-dasharray=""/><line x1="408.425" y1="898.5" x2="408.425" y2="917.4" stroke="#6a929a" stroke-width="2" stroke-dasharray=""/><line x1="631.85" y1="237.0" x2="530.6" y2="237.0" stroke="#9b9a8a" stroke-width="1.5" stroke-dasharray=""/><path d="M631.85 338.25 A101.25 101.25 0 0 1 530.6 237.0" fill="none" stroke="#9b9a8a" stroke-dasharray="4 4"/><text x="681.8" y="291.0" font-size="13" fill="#343d32" text-anchor="middle" >P9*</text><line x1="631.85" y1="851.25" x2="733.1" y2="851.25" stroke="#9b9a8a" stroke-width="1.5" stroke-dasharray=""/><path d="M631.85 750.0 A101.25 101.25 0 0 1 733.1 851.25" fill="none" stroke="#9b9a8a" stroke-dasharray="4 4"/><text x="681.8" y="804.0" font-size="13" fill="#343d32" text-anchor="middle" >P10*</text><rect x="286.925" y="365.25" width="243.0" height="378.0" fill="#ece3cd" stroke="#b4a58a" stroke-width="1.5" stroke-dasharray=""/><rect x="294.35" y="372.67499999999995" width="228.15" height="363.15" fill="none" stroke="#c8bba2" stroke-width="1" stroke-dasharray=""/><rect x="185" y="257.25" width="87.75" height="594.0" fill="#c9a477" stroke="#726c5d" stroke-width="1" stroke-dasharray=""/><rect x="272.75" y="297.75" width="64.8" height="67.5" fill="#879273" stroke="#726c5d" stroke-width="1" stroke-dasharray=""/><rect x="332.15" y="297.75" width="7.425" height="67.5" fill="#727e5e" stroke="#726c5d" stroke-width="1" stroke-dasharray=""/><text x="228.2" y="336.225" font-size="13" fill="#343d32" text-anchor="middle" >1</text><rect x="272.75" y="446.25" width="64.8" height="67.5" fill="#879273" stroke="#726c5d" stroke-width="1" stroke-dasharray=""/><rect x="332.15" y="446.25" width="7.425" height="67.5" fill="#727e5e" stroke="#726c5d" stroke-width="1" stroke-dasharray=""/><text x="228.2" y="484.725" font-size="13" fill="#343d32" text-anchor="middle" >2</text><rect x="272.75" y="594.75" width="64.8" height="67.5" fill="#879273" stroke="#726c5d" stroke-width="1" stroke-dasharray=""/><rect x="332.15" y="594.75" width="7.425" height="67.5" fill="#727e5e" stroke="#726c5d" stroke-width="1" stroke-dasharray=""/><text x="228.2" y="633.225" font-size="13" fill="#343d32" text-anchor="middle" >3</text><rect x="272.75" y="743.25" width="64.8" height="67.5" fill="#879273" stroke="#726c5d" stroke-width="1" stroke-dasharray=""/><rect x="332.15" y="743.25" width="7.425" height="67.5" fill="#727e5e" stroke="#726c5d" stroke-width="1" stroke-dasharray=""/><text x="228.2" y="781.725" font-size="13" fill="#343d32" text-anchor="middle" >4</text><line x1="185" y1="405.75" x2="272.75" y2="405.75" stroke="#ae906a" stroke-width="1" stroke-dasharray="3 3"/><line x1="185" y1="554.25" x2="272.75" y2="554.25" stroke="#ae906a" stroke-width="1" stroke-dasharray="3 3"/><line x1="185" y1="702.75" x2="272.75" y2="702.75" stroke="#ae906a" stroke-width="1" stroke-dasharray="3 3"/><rect x="530.6" y="446.25" width="94.5" height="202.5" fill="#424947" stroke="#313936" stroke-width="1" stroke-dasharray=""/><rect x="588.6500000000001" y="461.4375" width="7.425" height="83.025" fill="#9aada8" stroke="#bed0ca" stroke-width="1" stroke-dasharray=""/><rect x="588.6500000000001" y="550.5375" width="7.425" height="83.025" fill="#9aada8" stroke="#bed0ca" stroke-width="1" stroke-dasharray=""/><text x="557.5999999999999" y="547.5" font-size="12" fill="#fff9ea" text-anchor="middle" transform="rotate(-90 557.5999999999999 547.5)">MAGNUS</text><rect x="191.75" y="318.0" width="10.8" height="27.0" fill="#263831" stroke="#91a397" stroke-width="1" stroke-dasharray=""/><text x="241.7" y="313.95" font-size="10" fill="#285247" text-anchor="middle" >M1</text><rect x="191.75" y="466.5" width="10.8" height="27.0" fill="#263831" stroke="#91a397" stroke-width="1" stroke-dasharray=""/><text x="241.7" y="462.45" font-size="10" fill="#285247" text-anchor="middle" >M2</text><rect x="191.75" y="615.0" width="10.8" height="27.0" fill="#263831" stroke="#91a397" stroke-width="1" stroke-dasharray=""/><text x="241.7" y="610.95" font-size="10" fill="#285247" text-anchor="middle" >M3</text><rect x="191.75" y="763.5000000000001" width="10.8" height="27.0" fill="#263831" stroke="#91a397" stroke-width="1" stroke-dasharray=""/><text x="241.7" y="759.45" font-size="10" fill="#285247" text-anchor="middle" >M4</text><rect x="549.5" y="637.95" width="27.0" height="10.8" fill="#263831" stroke="#91a397" stroke-width="1" stroke-dasharray=""/><text x="581.9" y="673.05" font-size="10" fill="#285247" text-anchor="middle" >M5</text><circle cx="479.3" cy="547.5" r="45.900000000000006" fill="none" stroke="#454c43" stroke-width="2"/><rect x="446.90000000000003" y="513.075" width="64.8" height="68.85" fill="#4d5650" stroke="#726c5d" stroke-width="1" stroke-dasharray=""/><rect x="442.85" y="513.075" width="7.425" height="68.85" fill="#313b35" stroke="#726c5d" stroke-width="1" stroke-dasharray=""/><circle cx="408.425" cy="378.75" r="23" fill="#fff2b5" stroke="#b58a3b" stroke-width="2"/><text x="408.425" y="384.15" font-size="13" fill="#343d32" text-anchor="middle" >G1</text><circle cx="408.425" cy="729.75" r="23" fill="#fff2b5" stroke="#b58a3b" stroke-width="2"/><text x="408.425" y="735.15" font-size="13" fill="#343d32" text-anchor="middle" >G2</text><line x1="224.15" y1="289.65" x2="224.15" y2="818.85" stroke="#d5a742" stroke-width="5" stroke-dasharray=""/><text x="261.95" y="561.0" font-size="13" fill="#a17a29" text-anchor="middle" >T1</text><circle cx="569.75" cy="609.6" r="8" fill="#fff2b5" stroke="#b58a3b" stroke-width="2"/><text x="560.3" y="631.2" font-size="13" fill="#a17a29" text-anchor="middle" >T2</text><rect x="178.25" y="357.825" width="13.5" height="14.85" fill="#526e78" stroke="#526e78" stroke-width="1" stroke-dasharray=""/><text x="214.7" y="369.29999999999995" font-size="12" fill="#526e78" text-anchor="middle" >E1</text><rect x="178.25" y="702.075" width="13.5" height="14.85" fill="#526e78" stroke="#526e78" stroke-width="1" stroke-dasharray=""/><text x="214.7" y="713.55" font-size="12" fill="#526e78" text-anchor="middle" >E2</text><rect x="625.1" y="540.075" width="13.5" height="14.85" fill="#526e78" stroke="#526e78" stroke-width="1" stroke-dasharray=""/><text x="685.85" y="551.55" font-size="12" fill="#526e78" text-anchor="middle" >E3</text><line x1="185" y1="156.0" x2="631.85" y2="156.0" stroke="#526b4d" stroke-width="1" stroke-dasharray=""/><line x1="185" y1="149.925" x2="185" y2="162.075" stroke="#526b4d" stroke-width="1" stroke-dasharray=""/><line x1="631.85" y1="149.925" x2="631.85" y2="162.075" stroke="#526b4d" stroke-width="1" stroke-dasharray=""/><text x="408.425" y="146.55" font-size="13" fill="#526b4d" text-anchor="middle" >3,31 · cota de origem</text><line x1="99.95" y1="210" x2="99.95" y2="898.5" stroke="#526b4d" stroke-width="1" stroke-dasharray=""/><line x1="93.875" y1="210" x2="106.025" y2="210" stroke="#526b4d" stroke-width="1" stroke-dasharray=""/><line x1="93.875" y1="898.5" x2="106.025" y2="898.5" stroke="#526b4d" stroke-width="1" stroke-dasharray=""/><text x="89.15" y="554.25" font-size="13" fill="#526b4d" text-anchor="middle" transform="rotate(-90 89.15 554.25)">5,10 · cota de origem</text><line x1="143.15" y1="257.25" x2="143.15" y2="851.25" stroke="#526b4d" stroke-width="1" stroke-dasharray=""/><line x1="137.075" y1="257.25" x2="149.225" y2="257.25" stroke="#526b4d" stroke-width="1" stroke-dasharray=""/><line x1="137.075" y1="851.25" x2="149.225" y2="851.25" stroke="#526b4d" stroke-width="1" stroke-dasharray=""/><text x="132.35" y="554.25" font-size="13" fill="#526b4d" text-anchor="middle" transform="rotate(-90 132.35 554.25)">4,40 · bancada proposta</text><line x1="273.425" y1="959.25" x2="543.425" y2="959.25" stroke="#526b4d" stroke-width="1" stroke-dasharray=""/><line x1="273.425" y1="953.175" x2="273.425" y2="965.3249999999999" stroke="#526b4d" stroke-width="1" stroke-dasharray=""/><line x1="543.425" y1="953.175" x2="543.425" y2="965.3249999999999" stroke="#526b4d" stroke-width="1" stroke-dasharray=""/><text x="408.42499999999995" y="949.8" font-size="13" fill="#526b4d" text-anchor="middle" >2,00 · janela J1</text><text x="805" y="235" font-size="23" fill="#343d32" text-anchor="start" class="serif">Luz e tomadas</text><text x="805" y="275" font-size="15" fill="#4f6548" text-anchor="start" >G1 / G2 · teto</text><text x="805" y="299" font-size="13" fill="#746f61" text-anchor="start" >Plafons opalinos; comando C1.</text><text x="805" y="319" font-size="13" fill="#746f61" text-anchor="start" >Luz quente regulável, 3000 K.</text><text x="805" y="366" font-size="15" fill="#4f6548" text-anchor="start" >T1 · bancada de quatro</text><text x="805" y="390" font-size="13" fill="#746f61" text-anchor="start" >LED contínuo sob os armários.</text><text x="805" y="410" font-size="13" fill="#746f61" text-anchor="start" >Difusor; comando C2 independente.</text><text x="805" y="457" font-size="15" fill="#4f6548" text-anchor="start" >T2 · MAGNUS</text><text x="805" y="481" font-size="13" fill="#746f61" text-anchor="start" >Candeeiro de mesa orientável.</text><text x="805" y="501" font-size="13" fill="#746f61" text-anchor="start" >Regular para evitar reflexos nos ecrãs.</text><text x="805" y="548" font-size="15" fill="#4f6548" text-anchor="start" >M1–M4 · quatro lugares</text><text x="805" y="572" font-size="13" fill="#746f61" text-anchor="start" >Um módulo em cada posto.</text><text x="805" y="592" font-size="13" fill="#746f61" text-anchor="start" >2 tomadas + USB-C por módulo.</text><text x="805" y="639" font-size="15" fill="#4f6548" text-anchor="start" >M5 · MAGNUS</text><text x="805" y="663" font-size="13" fill="#746f61" text-anchor="start" >2 tomadas + USB-C; fixação por grampo.</text><text x="805" y="683" font-size="13" fill="#746f61" text-anchor="start" >Na aresta do tampo, sem o furar.</text><text x="805" y="730" font-size="15" fill="#4f6548" text-anchor="start" >E1 / E2 / E3 · alimentação</text><text x="805" y="754" font-size="13" fill="#746f61" text-anchor="start" >Reservas para tomadas de parede/dados.</text><text x="805" y="774" font-size="13" fill="#746f61" text-anchor="start" >Cabos nas calhas inferiores; validar circuitos.</text><line x1="185" y1="1005.15" x2="320" y2="1005.15" stroke="#3e4a38" stroke-width="4" stroke-dasharray=""/><text x="252.5" y="1033.5" font-size="12" fill="#343d32" text-anchor="middle" >1 metro</text><text x="45" y="1060" font-size="13" fill="#746f61" text-anchor="start" >Cotas lidas: 3,31 × 5,10 m. Área calculada: 16,88 m²; a planta escreve 17,40 m². Mantêm-se as cotas lineares.</text><text x="45" y="1085" font-size="13" fill="#746f61" text-anchor="start" >* Portas e respetivas posições estimadas pela imagem. Janela: L 2,00 × A 2,07 m; peitoril e teto por medir.</text></svg>